<?xml version="1.0" encoding="iso-8859-1"?>
<!-- Generator: Adobe Illustrator 27.8.1, SVG Export Plug-In . SVG Version: 6.00 Build 0)  -->
<svg version="1.1" id="Layer_2" xmlns="http://www.w3.org/2000/svg" xmlns:xlink="http://www.w3.org/1999/xlink" x="0px" y="0px"
	 width="4000px" height="2000px" viewBox="0 0 4000 2000" enable-background="new 0 0 4000 2000" xml:space="preserve">
<g>
	<rect fill="none" width="4000" height="2000"/>
	<g>
		<path fill="#16554A" d="M3639.759,834.627c-20.927-55.173-61.294-90.988-113.375-101.954c4.53-18.982,7.512-36.601,8.6-51.5
			c3.099-42.43-11.45-85.401-38.919-114.948c-23.909-25.719-56.156-39.883-90.799-39.883c-40.269,0-81.12,18.303-121.421,54.402
			c-34.037,30.488-77.634,88.365-120.379,153.433c-1.019-23.869-6.624-47.381-19.711-67.735
			c-12.246-19.047-36.094-42.947-80.16-48.646c-5.975-0.772-12.11-1.164-18.234-1.164c-42.727,0-86.883,18.063-134.991,55.219
			c-10.836,8.368-21.942,17.798-33.284,28.254c-9.429-17.149-22.695-31.775-39.358-43.213
			c-23.764-16.312-52.892-24.933-84.237-24.933c-30.496,0-60.903,8.163-87.935,23.606c-29.299,16.738-53.152,41.357-68.981,71.194
			c-4.059,7.65-8.297,15.243-12.684,22.767c-6.485-14.528-17.027-26.853-30.786-35.726c-9.636-6.356-32.277-20.694-128.407-26.076
			c19.824-40.132,38.939-76.927,55.856-107.433c10.679-19.257,8.613-43.131-5.421-60.1c-24.865-30.065-59.292-46.629-96.892-46.629
			c-35.08,0-69.526,14.401-99.616,41.645c-28.861,26.131-52.597,62.941-70.55,109.406c-8.233,21.309-15.131,36.276-21.709,47.102
			c-5.597,9.211-9.417,12.764-10.883,13.914h-77.533l40.503-130.054c4.903-15.742,2.308-32.862-7.039-46.445l-70.716-102.755
			c-10.027-14.57-26.582-23.273-44.269-23.273h-503.909c-23.526,0-44.317,15.303-51.31,37.765l-9.944,31.943
			c-0.077,0.247-92.893,0-92.893,0c5.077-16.312,2.095-34.067-8.033-47.826c-10.127-13.759-26.194-21.882-43.278-21.882h-102.755
			c-19.646,0-37.377,10.676-46.766,27.277c-1.048-1.851-2.209-3.649-3.486-5.384c-10.128-13.76-26.195-21.884-43.28-21.884H802.576
			c-11.774,0-23.223,3.867-32.586,11.007L635.269,496.85c-8.866,6.761-15.409,16.111-18.723,26.757l-95.961,308.201
			c-4.903,15.746-2.305,32.871,7.049,46.453l70.745,102.734c4.119,5.981,9.35,10.952,15.295,14.758H509.09
			c-23.525,0-44.316,15.302-51.309,37.764l-63.973,205.469c-6.952,22.331,1.337,46.595,20.499,60.003
			c4.133,2.893,8.568,5.138,13.168,6.736l-75.18,241.462c-5.079,16.312-2.098,34.068,8.029,47.828
			c10.128,13.76,26.195,21.885,43.28,21.885h102.732c23.524,0,44.315-15.302,51.309-37.763l13.912-44.679
			c4.196-13.477,16.67-22.657,30.785-22.657h87.738c11.774,0,23.222-3.867,32.584-11.006l123.347-94.058l-43.731,140.448
			c-5.079,16.313-2.099,34.069,8.029,47.829c10.127,13.76,26.195,21.885,43.28,21.885h606.582c23.525,0,44.315-15.302,51.309-37.764
			l31.983-102.723c0.001-0.004,0.003-0.007,0.004-0.01l19.251-61.827l51.646,164.668c7.028,22.407,27.792,37.656,51.276,37.656
			h102.737c23.525,0,44.315-15.302,51.309-37.763l77.547-249.059c-0.254,10.937,0.172,21.699,1.321,32.25
			c3.928,36.057,16.348,69.173,35.917,95.766c31.96,43.434,82.071,68.345,137.485,68.345c41.767,0,85.837-14.051,127.448-40.636
			c11.872-7.584,19.93-19.235,23.189-32.195c1.089,0.022,2.179,0.034,3.275,0.034c42.33,0,80.771-9.934,116.635-30.25
			c7.5,9.412,19.028,18.647,36.72,25.334c16.25,6.143,35.532,9.388,55.762,9.388c13.584,0,27.082-1.48,40.122-4.398
			c115.143-25.779,193.082-40.703,250.735-40.703c44.405,0,80.937,8.104,139.605,30.97c19.966,7.781,40.377,11.727,60.669,11.727
			c30.332,0,59.602-9.183,82.421-25.856c25.312-18.498,41.394-44.729,45.282-73.863c0.093-0.694,0.178-1.388,0.257-2.082
			c31.249,16.778,68.179,25.644,108.628,25.646c0.009,0,0.008,0,0.017,0c73.66,0,156.943-29.832,240.828-86.262
			c76.631-51.55,147.487-131.724,194.397-219.964c22.228-41.81,38.173-84.089,46.113-122.267
			C3653.426,906.018,3651.98,866.843,3639.759,834.627z"/>
		<g>
			<polygon fill="#FFFFFF" points="770.59,539.582 1078.79,539.582 1110.777,436.847 802.576,436.847 667.855,539.582 
				571.894,847.782 642.639,950.517 1147.125,950.517 1179.111,847.782 1076.361,847.782 674.629,847.782 			"/>
			<polygon fill="#FFFFFF" points="1307.063,436.839 1204.309,436.839 1076.361,847.782 1211.077,745.051 1416.587,745.051 
				1352.589,950.509 1455.344,950.509 1551.33,642.297 1448.57,642.297 1243.118,642.297 			"/>
			<polygon fill="#FFFFFF" points="1020.3,1357.692 1225.769,1357.692 1257.754,1254.96 1052.285,1254.96 1084.272,1152.226 
				1392.477,1152.226 1424.464,1049.492 1116.847,1049.492 981.543,1152.226 853.59,1563.161 1460.172,1563.161 1492.159,1460.427 
				988.313,1460.427 			"/>
			<polygon fill="#FFFFFF" points="1723.222,1378.24 1620.114,1049.492 1517.377,1049.492 1421.415,1357.692 1492.159,1460.427 
				1562.533,1234.413 1665.641,1563.161 1768.378,1563.161 1928.315,1049.492 1825.578,1049.492 			"/>
			<polygon fill="#FFFFFF" points="888.041,1152.226 1013.532,1049.492 509.09,1049.492 445.117,1254.96 579.841,1152.226 
				785.304,1152.226 753.318,1254.96 499.564,1254.96 403.605,1563.161 506.337,1563.161 570.315,1357.692 721.332,1357.692 
				856.054,1254.96 			"/>
			<path fill="#FFFFFF" d="M3589.514,853.685c-26.575-70.061-86.204-78.937-136.754-65.642
				c17.177-44.335,26.784-85.538,28.628-110.785c5.062-69.314-61.448-146.276-161.688-56.487
				c-50.969,45.655-140.335,179.135-210.032,308.642c-19.925-0.374-42.22,1.05-65.263,4.218
				c22.674-41.068,41.303-82.785,53.862-123.472c12.861-41.665,30.024-129.812-41.563-139.068
				c-66.131-8.551-145.589,59.978-221.569,153.42c4.969-30.542,6.688-58.39,2.755-76.932
				c-17.736-83.613-147.589-82.821-193.843,4.365c-44.455,83.796-105.922,157.2-167.327,229.696
				c-17.197,20.303-49.54,54.224-60.045,45.065c-23.027-20.076,64.018-148.332,106.75-206.257
				c21.033-28.511,16.276-51.491,0.375-61.602c-21.915-14.47-108.835-19.479-183.538-19.479
				c27.214-58.164,61.142-127.152,93.294-185.13c-42.331-50.878-127.417-34.323-175.352,89.743
				c-21.537,55.742-43.865,95.387-81.554,95.387c-35.692,0-91.798,0-151.718,0l62.215-199.772l-70.715-102.755h-401.155h-102.755
				l-31.989,102.755h0.005l-31.967,102.703l134.716-102.703h401.103l-62.181,199.772c-40.602,0-78.545,0-108.382,0
				c10.742,35.805,42.479,81.438,77.257,99.997l-2.628,8.443h-205.458l63.977-205.51h-102.755l-63.977,205.51l70.746,102.703
				h205.458l132.086-100.701c65.746-3.691,136.13-18.801,169.454-23.716c-62.011,121.958-153.854,304.556-195.325,437.653
				c-50.787,162.995,70.99,264.185,207.811,176.772c-91.372,5.708-139.671-79.812-114.968-162.475
				c2.687-8.992,5.985-18.693,9.78-28.949c13.021-0.135,27.718-2.921,43.642-9.128c7.909-3.082,15.099-6.013,21.729-8.79
				c-1.36,3.238-2.609,6.542-3.733,9.913c-21.044,63.133,19.749,158.815,98.946,158.815c91.776,0,144.074-59.117,201.132-132.645
				c108.51-139.832,278.818-527.914,335.373-508.985c43.124,14.434,25.535,96.962-2.808,168.043
				c-85.823,124.946-158.477,260.215-189.112,316.29c-11.514,21.076-35.869,67.428-36.954,100.362
				c-32.891,8.53-69.648,16.366-111.242,22.828c-82.633,12.838-20.938,49.369,41.108,35.478
				c240.195-53.775,297.914-55.568,421.596-7.361c106.961,41.689,192.115-89.496,8.962-139.265
				c-99.868-27.138-160.091,25.843-303.62,71.862c10.792-12.487,28.509-28.33,56.09-41.39
				c38.816-74.927,82.62-157.772,141.01-253.306c52.048-85.159,187.92-330.373,227.713-318.542
				c26.174,7.781-42.162,129.065-101.165,239.393c34.901-7.698,78.889-9.753,78.889-9.753s-0.458,0.313-1.303,0.875
				c-34.544,8.577-68.019,20.907-95.085,36.807c-90.149,52.958-131.682,117.146-132.128,149.096
				c-1.51,4.27,0.363,10.423,5.012,15.761c23.038,26.455,94.079,28.833,138.536-21.099c34.831-39.121,68.714-82.703,98.69-128.244
				c33.955-4.812,69.79-6.264,105.947-2.967c16.523,1.507,29.099,1.994,38.777,1.611c-21.271,5.202-54.872,12.492-83.124,16.424
				c-25.962,54.751-45.629,104.868-53.939,142.361c-31.031,139.999,123.2,254.016,359.329,95.17
				C3522.556,1148.47,3624.408,945.68,3589.514,853.685z M2356.018,1245.031c-126.848,152.802-238.583-47.509-62.857-39.435
				c1.145,0.053,2.284,0.005,3.413-0.128c18.091,3.022,39.53,7.126,65.511,12.398l-15.677-53.683
				c-64.135-12.669-152.387-69.795-249.413-39.748c-9.223,2.856-17.662,5.972-25.356,9.292
				c13.763-12.702,33.736-25.952,62.254-35.297c45.386-89.097,98.401-181.992,132.258-240.899
				c14.158-24.633,25.098-24.273,66.985-24.273c58.873,0,105.502-4.947,137.864-9.818c-14.421,7.199-35.511,15.347-66.082,22.982
				c-34.571,58.183-65.123,129.196-73.48,169.787c-15.528,75.417,55.836,126.581,143.469,12.766
				c19.598-25.453,39.127-49.673,50.668-43.976C2535.015,989.66,2469.767,1108.008,2356.018,1245.031z M2856.905,1065.792
				c-9.674,21.906-35.373,80.304-62.927,65.366c-0.755-0.409-1.482-0.781-2.206-1.149c-0.115-0.136-0.208-0.267-0.329-0.404
				c-20.62-23.339,14.964-62.621,79.264-93.359C2865.623,1046.671,2860.974,1056.578,2856.905,1065.792z M3398.295,649.397
				c48.536,8.547-125.344,299.488-176.098,288.572C3183.692,929.687,3360.415,642.726,3398.295,649.397z M3156.804,1296.089
				c-45.817,19.789-77.37-6.877-78.076-60.145c-0.993-74.887,71.065-195.932,94.926-233.72
				c9.243-14.638,49.473,14.699,135.491-27.901c48.719-24.128,87.338-72.831,115.589-125.234
				c-6.07-26.841-18.193-41.647-18.193-41.647c11.834,5.433,21.268,12.653,28.543,21.342c0.002,0.003,0.004,0.005,0.007,0.008
				c0,0,0,0,0,0c0.776,0.926,1.524,1.87,2.252,2.83c0.159,0.21,0.315,0.422,0.472,0.633c0.564,0.76,1.113,1.53,1.646,2.31
				c0.208,0.303,0.415,0.606,0.618,0.912c0.478,0.721,0.94,1.452,1.393,2.19c0.205,0.333,0.415,0.662,0.615,0.998
				c0.488,0.822,0.956,1.657,1.414,2.498c0.132,0.243,0.273,0.48,0.403,0.724c0.562,1.06,1.1,2.136,1.616,3.226
				c0.172,0.363,0.331,0.735,0.498,1.101c0.351,0.768,0.696,1.54,1.024,2.323c0.167,0.4,0.327,0.805,0.489,1.209
				c0.321,0.8,0.633,1.605,0.932,2.419c0.128,0.349,0.254,0.699,0.378,1.051c0.346,0.981,0.675,1.972,0.99,2.973
				c0.037,0.12,0.082,0.236,0.119,0.357c-0.001,0.003-0.002,0.005-0.003,0.008
				C3486.781,975.454,3303.416,1232.766,3156.804,1296.089z"/>
		</g>
	</g>
</g>
<g>
</g>
<g>
</g>
<g>
</g>
<g>
</g>
<g>
</g>
<g>
</g>
<g>
</g>
<g>
</g>
<g>
</g>
<g>
</g>
<g>
</g>
<g>
</g>
<g>
</g>
<g>
</g>
<g>
</g>
</svg>
