<?xml version="1.0" encoding="iso-8859-1"?>
<!-- Generator: Adobe Illustrator 27.8.1, SVG Export Plug-In . SVG Version: 6.00 Build 0)  -->
<svg version="1.1" id="Layer_2" xmlns="http://www.w3.org/2000/svg" xmlns:xlink="http://www.w3.org/1999/xlink" x="0px" y="0px"
	 width="2000px" height="2000px" viewBox="0 0 2000 2000" enable-background="new 0 0 2000 2000" xml:space="preserve">
<g>
	<g>
		<path fill="#FFFFFF" d="M1560.625,634.457l11.237-36.074c0.019-0.061,0.045-0.119,0.064-0.179l29.642-95.18l0.089-0.287v0
			l40.296-129.39c2.682-8.613,1.262-17.981-3.853-25.413l-51.589-74.966c-5.486-7.972-14.545-12.734-24.223-12.734H1194.66
			c-12.873,0-24.249,8.373-28.075,20.664l-5.441,17.478c-0.046,0.148-88.3,0-88.3,0c3.377-10.847,0.239-22.861-8.514-30.698
			c-5.498-4.923-12.739-7.443-20.119-7.443h-74.408c-0.01,0-0.019,0.001-0.029,0.001L858.58,260.24H676.718
			c-6.443,0-12.707,2.116-17.83,6.022l-98.286,74.95c-4.851,3.699-8.431,8.815-10.244,14.64l-70.008,224.849
			c-2.683,8.616-1.261,17.986,3.857,25.418l51.613,74.95c5.487,7.968,14.543,12.727,24.217,12.727v13.4h-97.431
			c-12.872,0-24.248,8.373-28.074,20.663l-46.671,149.9c-3.805,12.219,0.731,25.495,11.216,32.832
			c5.005,3.502,10.815,5.267,16.629,5.312l-58.131,186.705c0,0,0,0,0,0l-13.495,43.343h-42.341c-7.328,0-14.521,2.484-20.005,7.345
			c-8.749,7.754-11.962,19.677-8.713,30.508c6.007,20.023,18.318,41.813,33.774,59.784c13.237,15.389,34.628,34.698,61.361,39.291
			c11.795,2.025,25.35,3.052,40.289,3.052c30.241,0,63.139-4.156,91.313-8.613c-39.883,79.664-92.195,188.826-118.063,271.851
			c-17.222,55.27-11.608,108.021,15.4,144.725c21.449,29.15,55.131,45.869,92.408,45.869c28.598,0,58.926-9.718,87.704-28.104
			c8.871-5.668,13.851-15.484,13.564-25.61c3.622,0.402,7.298,0.605,11.02,0.605c32.246,0,61.228-8.382,88.173-25.564
			c3.761,7.93,11.504,16.686,27.174,22.61c10.759,4.068,23.627,6.218,37.214,6.218c9.191,0,18.319-1,27.13-2.973
			c86.706-19.412,141.88-29.931,185.066-29.931c33.756,0,61.34,6.088,105.409,23.264c13.427,5.233,27.12,7.886,40.701,7.886
			c20.065,0,39.366-6.028,54.347-16.976c16.288-11.902,26.624-28.689,29.103-47.269c0.806-6.039,0.761-12.078-0.103-18.032
			c24.048,17.394,54.752,26.716,89.257,26.719c0.007,0,0.006,0,0.012,0c51.782,0,110.649-21.187,170.225-61.264
			c54.615-36.74,105.148-93.944,138.64-156.944c34.489-64.873,45.422-125.403,29.996-166.071
			c-9.105-24.005-23.251-42.353-42.042-54.533c-12.948-8.392-27.578-13.54-43.632-15.372c4.643-17.207,7.674-33.232,8.624-46.238
			c2.066-28.287-7.577-56.874-25.795-76.472c-15.569-16.746-36.545-25.97-59.064-25.97c-8.563,0-17.196,1.268-25.879,3.794
			l76.244-244.872l18.248-58.581c3.538-11.357-4.948-22.889-16.844-22.889h-33.256l62.129-47.366
			C1551.274,653.42,1557.48,644.553,1560.625,634.457z"/>
		<g>
			<path fill="#16554A" d="M1476.425,1255.404c-20.61,38.231-48.786,73.763-84.328,91.365
				c-62.755,31.079-92.105,9.677-98.848,20.355c-17.408,27.568-69.978,115.877-69.253,170.511
				c0.515,38.862,23.535,58.316,56.961,43.879c106.961-46.198,240.736-233.921,213.864-320.664c0.001-0.002,0.002-0.004,0.002-0.006
				c-0.027-0.088-0.059-0.173-0.087-0.26c-0.229-0.73-0.47-1.453-0.722-2.169c-0.09-0.257-0.183-0.512-0.276-0.767
				c-0.218-0.594-0.445-1.181-0.68-1.765c-0.118-0.294-0.235-0.59-0.357-0.882c-0.24-0.571-0.492-1.134-0.747-1.695
				c-0.122-0.267-0.238-0.538-0.363-0.803c-0.377-0.795-0.769-1.58-1.179-2.353c-0.095-0.178-0.198-0.351-0.295-0.529
				c-0.334-0.614-0.676-1.223-1.032-1.823c-0.146-0.245-0.299-0.485-0.448-0.728c-0.331-0.538-0.668-1.072-1.016-1.598
				c-0.148-0.223-0.299-0.444-0.451-0.665c-0.39-0.569-0.79-1.131-1.201-1.685c-0.115-0.154-0.228-0.309-0.344-0.462
				c-0.53-0.7-1.077-1.389-1.643-2.064l0,0c-0.002-0.002-0.003-0.004-0.005-0.006c-5.308-6.339-12.19-11.606-20.824-15.57
				C1463.151,1225.021,1471.996,1235.822,1476.425,1255.404z"/>
			<path fill="#16554A" d="M820.44,1354.559c-8.419-4.156-22.667,13.513-36.965,32.083c-63.932,83.034-115.997,45.708-104.668-9.313
				c6.097-29.613,28.386-81.421,53.608-123.869c22.303-5.57,37.689-11.515,48.21-16.766c-23.61,3.553-57.628,7.162-100.579,7.162
				c-30.559,0-38.54-0.263-48.869,17.708c-24.701,42.976-63.378,110.748-96.489,175.749c-20.806,6.817-35.377,16.484-45.418,25.751
				c5.613-2.422,11.77-4.695,18.499-6.779c70.786-21.921,135.17,19.756,181.96,28.998l11.438,39.165
				c-18.954-3.847-34.595-6.841-47.794-9.045c-0.824,0.098-1.655,0.132-2.49,0.094c-128.202-5.89-46.685,140.247,45.857,28.77
				C779.726,1444.3,827.328,1357.959,820.44,1354.559z"/>
			<path fill="#16554A" d="M1328.663,1320.248c37.028,7.964,163.882-204.293,128.473-210.528
				C1429.501,1104.853,1300.571,1314.206,1328.663,1320.248z"/>
			<path fill="#16554A" d="M716.143,1111.35c-10.959,21.979-21.483,43.881-30.9,64.007c54.504,0,117.924,3.655,133.905,14.214
				c11.597,7.378,15.065,24.142-0.278,44.94c-31.175,42.26-94.679,135.829-77.879,150.475c7.664,6.682,31.26-18.065,43.806-32.877
				c44.798-52.89,89.641-106.442,122.074-167.576c33.745-63.606,128.479-64.184,141.419-3.184
				c2.869,13.527,1.615,33.844-2.01,56.126c55.432-68.17,113.4-118.166,161.646-111.928c52.227,6.753,39.705,71.061,30.322,101.458
				c-9.162,29.683-22.753,60.118-39.295,90.079c16.811-2.311,33.077-3.35,47.613-3.077c42.111-78.249,94.06-158.474,131.793-202.656
				h-71.991l-75.222-239.839l-51.342,164.889l-23.336,74.95H716.143z"/>
			<path fill="#16554A" d="M1014.405,1460.056c0.088,0.1,0.156,0.196,0.24,0.294c0.529,0.269,1.059,0.54,1.609,0.838
				c20.102,10.898,38.851-31.706,45.908-47.688c2.968-6.722,6.36-13.95,10.069-21.556
				C1025.322,1414.371,999.362,1443.029,1014.405,1460.056z"/>
			<path fill="#16554A" d="M1601.657,502.737L1601.657,502.737l40.296-129.39c2.682-8.613,1.262-17.981-3.853-25.413l-51.589-74.966
				c-5.486-7.972-14.545-12.734-24.223-12.734H1194.66c-12.873,0-24.249,8.373-28.075,20.664l-5.441,17.477
				c-0.046,0.148-88.3,0-88.3,0c3.377-10.847,0.239-22.861-8.514-30.698c-5.498-4.923-12.739-7.443-20.119-7.443h-74.408
				c-0.01,0-0.019,0.001-0.029,0.001l-111.194,0.005H676.718c-6.443,0-12.707,2.116-17.83,6.022l-98.286,74.95
				c-4.851,3.699-8.431,8.815-10.244,14.64l-70.008,224.849c-2.683,8.616-1.261,17.986,3.857,25.418l51.613,74.95
				c5.487,7.968,14.543,12.727,24.217,12.727v13.4h-97.431c-12.872,0-24.248,8.373-28.074,20.663l-46.671,149.9
				c-3.805,12.219,0.731,25.495,11.216,32.832c5.004,3.502,10.815,5.267,16.629,5.312l-58.131,186.705c0,0,0,0,0,0l-13.495,43.343
				h-42.341c-7.328,0-14.521,2.484-20.005,7.345c-8.749,7.755-11.962,19.678-8.713,30.509c6.007,20.023,18.318,41.813,33.774,59.784
				c13.237,15.389,34.628,34.698,61.361,39.291c11.795,2.025,25.35,3.052,40.289,3.052c30.241,0,63.139-4.156,91.313-8.613
				c-39.883,79.664-92.195,188.826-118.063,271.851c-17.222,55.27-11.608,108.021,15.4,144.725
				c21.449,29.15,55.131,45.869,92.408,45.869c28.598,0,58.925-9.718,87.704-28.104c8.871-5.668,13.851-15.484,13.564-25.61
				c3.622,0.402,7.298,0.605,11.02,0.605c32.246,0,61.228-8.382,88.173-25.564c3.761,7.93,11.504,16.686,27.174,22.61
				c10.759,4.068,23.627,6.218,37.214,6.218c9.191,0,18.319-1,27.13-2.973c86.706-19.412,141.88-29.931,185.066-29.931
				c33.756,0,61.34,6.088,105.409,23.264c13.427,5.233,27.12,7.886,40.701,7.886c20.065,0,39.366-6.028,54.347-16.976
				c16.288-11.902,26.624-28.689,29.103-47.269c0.806-6.039,0.761-12.078-0.103-18.032c24.048,17.394,54.752,26.716,89.257,26.719
				c0.007,0,0.006,0,0.012,0c51.782,0,110.649-21.187,170.225-61.264c54.615-36.74,105.148-93.944,138.64-156.944
				c34.489-64.873,45.422-125.403,29.996-166.071c-9.105-24.005-23.251-42.353-42.042-54.533
				c-12.948-8.392-27.578-13.54-43.632-15.372c4.643-17.207,7.674-33.233,8.624-46.238c2.066-28.287-7.577-56.874-25.795-76.472
				c-15.569-16.746-36.545-25.97-59.064-25.97c-8.563,0-17.196,1.268-25.879,3.794l76.244-244.872l18.248-58.581
				c3.538-11.357-4.948-22.889-16.844-22.889h-33.256l62.129-47.366c8.409-6.411,14.615-15.278,17.76-25.373l11.237-36.074
				c0.019-0.061,0.045-0.119,0.064-0.179l29.642-95.18L1601.657,502.737z M455.654,886.501h185.127l23.336-74.95H514.22
				l-98.288,74.95l46.672-149.9h368.017l-91.552,74.95l-23.336,74.95l-98.287,74.948H507.271l-46.676,149.9h-74.948L455.654,886.501
				z M1498.004,736.601l-115.032,369.449c6.063-6.83,11.712-12.634,16.825-17.214c73.13-65.506,121.653-9.358,117.96,41.21
				c-1.345,18.419-8.354,48.479-20.886,80.824c36.88-9.7,80.381-3.224,99.769,47.889c25.457,67.115-48.849,215.061-157.556,288.189
				c-172.268,115.887-284.787,32.705-262.149-69.431c6.063-27.353,20.411-63.916,39.352-103.86
				c20.611-2.868,45.125-8.187,60.644-11.982c-7.06,0.279-16.235-0.076-28.29-1.175c-26.378-2.405-52.522-1.346-77.294,2.165
				c-21.869,33.225-46.589,65.02-72,93.561c-32.434,36.428-84.262,34.693-101.069,15.393c-3.391-3.895-4.758-8.384-3.657-11.499
				c0.326-23.31,30.626-70.138,96.395-108.774c19.746-11.6,44.168-20.595,69.37-26.852c0.617-0.41,0.95-0.638,0.95-0.638
				s-32.091,1.499-57.554,7.115c43.045-80.49,92.9-168.973,73.805-174.65c-29.031-8.631-128.157,170.266-166.129,232.394
				c-42.598,69.697-74.556,130.137-102.874,184.8c-20.122,9.528-33.048,21.086-40.921,30.196
				c104.712-33.574,148.647-72.226,221.507-52.427c133.619,36.31,71.495,132.016-6.539,101.601
				c-90.233-35.169-132.342-33.861-307.577,5.37c-45.266,10.134-90.275-16.517-29.99-25.883
				c30.345-4.714,57.161-10.431,81.157-16.654c0.792-24.027,18.56-57.844,26.96-73.22c22.35-40.91,75.355-139.596,137.967-230.751
				c20.678-51.857,33.51-112.066,2.049-122.596c-41.26-13.81-165.508,269.317-244.672,371.332
				c-41.627,53.642-79.781,96.771-146.736,96.771c-57.779,0-87.539-69.806-72.186-115.864c0.82-2.459,1.731-4.87,2.723-7.232
				c-4.837,2.026-10.082,4.164-15.852,6.412c-11.617,4.528-22.34,6.561-31.839,6.659c-2.768,7.483-5.174,14.56-7.135,21.12
				c-18.023,60.307,17.214,122.698,83.875,118.534c-99.818,63.773-188.661-10.051-151.609-128.964
				c30.255-97.101,97.26-230.316,142.5-319.291c-34.343,5.065-122.64,24.978-179.134,15.273
				c-30.95-5.317-62.525-47.13-71.949-78.544c71.28,0,205.923,0,264.698,0c27.496,0,43.786-28.923,59.498-69.59
				c30.415-78.721,81.328-98.104,114.395-77.401l67.51-216.815l98.712-74.95h224.423l-23.336,74.95H882.229l-23.336,74.95h149.9
				l-23.335,74.948h-149.9l-23.336,74.95h367.582l-51.611-74.95l70.009-224.849h74.952l75.223,239.839l74.674-239.839H1498.004z
				 M1543.852,589.461l-98.279,74.927H1295.68l-51.613-74.927l46.675-149.93h74.965l-46.675,149.93h149.892l69.989-224.857h-292.626
				l-98.283,74.927h74.969l-70.027,224.857h-74.965l46.69-149.892h-149.93l-98.283,74.948h74.962l-23.336,74.95H560.035
				l-51.612-74.95l70.009-224.849l98.286-74.95h224.849l-23.336,74.95H653.382l-70.009,224.849h293.085l93.345-299.805h74.965
				L998.116,439.53h149.888l23.322-74.927h-0.004l23.337-74.965h74.965h292.664l51.59,74.965L1543.852,589.461z"/>
		</g>
	</g>
	<rect fill="none" width="2000" height="2000"/>
</g>
<g>
</g>
<g>
</g>
<g>
</g>
<g>
</g>
<g>
</g>
<g>
</g>
<g>
</g>
<g>
</g>
<g>
</g>
<g>
</g>
<g>
</g>
<g>
</g>
<g>
</g>
<g>
</g>
<g>
</g>
</svg>
